<?xml version="1.0" encoding="iso-8859-1"?>
<!-- Generator: Adobe Illustrator 16.0.0, SVG Export Plug-In . SVG Version: 6.00 Build 0)  -->
<!DOCTYPE svg PUBLIC "-//W3C//DTD SVG 1.1//EN" "http://www.w3.org/Graphics/SVG/1.1/DTD/svg11.dtd">
<svg version="1.1" id="Layer_1" xmlns="http://www.w3.org/2000/svg" xmlns:xlink="http://www.w3.org/1999/xlink" x="0px" y="0px"
	 width="24px" height="24px" viewBox="243.968 243.968 24 24" style="enable-background:new 243.968 243.968 24 24;"
	 xml:space="preserve">
<path style="fill:#0A0A0A;" d="M245.105,249.074c0-0.371,0.001-0.742,0.001-1.113c0.117-0.137,0.306-0.063,0.438-0.14
	c0.085-0.147,0.015-0.333,0.142-0.455l0,0.001c0.106-0.117,0.273-0.064,0.396-0.141c0.083-0.139,0.01-0.326,0.139-0.449l0,0.001
	c0.124-0.127,0.309-0.062,0.444-0.132c0.083-0.131,0.029-0.298,0.146-0.403l-0.001-0.001c0.124-0.125,0.307-0.063,0.442-0.13
	c0.096-0.142,0.014-0.333,0.153-0.449c0.177,0,0.354,0.001,0.53,0.001c0.13,0.115,0.065,0.29,0.137,0.434
	c0.149,0.085,0.324,0.039,0.488,0.062c0.191-0.016,0.386-0.057,0.551,0.089l-0.001,0c0.125,0.101,0.07,0.27,0.138,0.385
	c0.127,0.085,0.299,0.024,0.399,0.151l-0.001,0c0.138,0.117,0.065,0.306,0.14,0.438c0.143,0.092,0.334,0.011,0.45,0.152
	l-0.001-0.001c0.141,0.116,0.061,0.307,0.147,0.442c0.135,0.088,0.327,0.006,0.442,0.148l0-0.002c0.143,0.154,0.104,0.34,0.09,0.522
	c0.048,0.519-0.024,1.043,0.042,1.549c0.132,0.104,0.305,0.054,0.403,0.177l0.008-0.006c0.127,0.123,0.055,0.309,0.138,0.448
	c0.137,0.087,0.327,0.009,0.445,0.146v-0.001c0.137,0.118,0.059,0.308,0.145,0.444c0.137,0.087,0.326,0.008,0.444,0.146v-0.001
	c0.121,0.103,0.07,0.27,0.134,0.386c0.129,0.085,0.3,0.026,0.401,0.15l0,0c0.137,0.117,0.059,0.308,0.146,0.444
	c0.136,0.086,0.326,0.008,0.444,0.146l0-0.001c0.135,0.119,0.064,0.306,0.138,0.439c0.144,0.091,0.333,0.012,0.451,0.15
	l-0.001-0.001c0.125,0.102,0.065,0.272,0.145,0.392c0.12,0.08,0.29,0.019,0.392,0.145l-0.001,0c0.138,0.117,0.06,0.307,0.146,0.443
	c0.136,0.087,0.326,0.009,0.443,0.146h-0.001c0.14,0.116,0.061,0.308,0.164,0.465c0.265,0.04,0.541,0.04,0.806-0.001
	c0.1-0.159,0.025-0.347,0.158-0.467l0.002,0.001c0.119-0.132,0.306-0.064,0.439-0.137c0.092-0.145,0.014-0.333,0.148-0.452l0,0
	c0.121-0.133,0.309-0.063,0.441-0.135c0.082-0.128,0.027-0.297,0.148-0.401v0.001c0.104-0.119,0.27-0.071,0.387-0.136
	c0.09-0.145,0.014-0.334,0.148-0.453l0,0c0.119-0.135,0.307-0.059,0.445-0.145c0.084-0.138,0.01-0.325,0.141-0.447l0.004,0.004
	c0.117-0.137,0.303-0.056,0.441-0.137c0.061-0.078,0.051-0.161,0.018-0.249c-0.131-0.114-0.338-0.008-0.455-0.156l-0.008,0.005
	c-0.145-0.178-0.098-0.383-0.084-0.583c-0.023-0.199-0.023-0.398,0-0.598c-0.016-0.185-0.053-0.374,0.084-0.534l0.002,0.002
	c0.113-0.126,0.289-0.075,0.447-0.157c0.074-0.273,0.033-0.56,0.023-0.822c-0.133-0.125-0.264-0.094-0.385-0.095
	c-0.658-0.005-1.318,0-1.977-0.003c-0.15-0.001-0.307,0.015-0.434-0.098c-0.153-0.364-0.069-0.742-0.065-1.116
	c-0.008-0.205-0.069-0.417,0.092-0.596l-0.001,0.001c0.115-0.142,0.309-0.059,0.443-0.146c0.08-0.12,0.02-0.291,0.146-0.391
	l-0.002,0.001c0.117-0.141,0.307-0.061,0.443-0.148c0.088-0.135,0.006-0.326,0.148-0.442l-0.002,0.001
	c0.1-0.127,0.271-0.067,0.391-0.147c0.086-0.135,0.004-0.327,0.145-0.442v0c0.117-0.141,0.309-0.059,0.443-0.147
	c0.08-0.12,0.018-0.292,0.148-0.39c0.193-0.004,0.385-0.008,0.578-0.013c0.182-0.122,0.363-0.125,0.543,0.005l-0.006,0.006
	c0.143,0.159,0.102,0.348,0.088,0.532c0.039,0.782,0.006,1.565,0.02,2.348c0.002,0.13-0.027,0.268,0.055,0.387
	c0.119,0.085,0.262,0.032,0.389,0.07c0.156-0.007,0.314-0.003,0.465-0.033c0.119-0.141,0.023-0.347,0.166-0.468l-0.002-0.002
	c0.16-0.136,0.348-0.098,0.533-0.083c0.199-0.024,0.398-0.024,0.598-0.001c0.201-0.015,0.408-0.059,0.588,0.081l-0.004,0.002
	c0.131,0.123,0.057,0.311,0.141,0.45c0.125,0.076,0.291,0.025,0.398,0.138l-0.002-0.001c0.111,0.107,0.068,0.265,0.133,0.392
	c0.137,0.096,0.332,0.013,0.459,0.145l-0.002-0.001c0.127,0.125,0.055,0.312,0.139,0.451c0.141,0.083,0.328,0.012,0.451,0.14
	l-0.002-0.001c0.125,0.123,0.063,0.3,0.133,0.444c0.119,0.09,0.295,0.028,0.404,0.146v-0.001c0.107,0.107,0.072,0.263,0.125,0.389
	c0.141,0.1,0.338,0.017,0.465,0.148l-0.002-0.001c0.127,0.124,0.057,0.311,0.139,0.451c0.139,0.085,0.326,0.011,0.447,0.143
	l0.004-0.004c0.125,0.125,0.055,0.31,0.135,0.448c0.119,0.083,0.291,0.023,0.391,0.15l0.01-0.006
	c0.137,0.166,0.094,0.359,0.082,0.547c0.031,0.564,0.031,1.129,0.002,1.693c0.01,0.206,0.063,0.417-0.082,0.601l-0.012-0.005
	c-0.1,0.125-0.27,0.065-0.391,0.147c-0.082,0.136-0.006,0.324-0.139,0.445l0.004,0.005c-0.199,0.132-0.398,0.136-0.594-0.004
	l0.002-0.001c-0.135-0.12-0.059-0.308-0.145-0.445c-0.137-0.084-0.324-0.01-0.445-0.142l0,0c-0.133-0.122-0.059-0.311-0.141-0.448
	c-0.123-0.077-0.291-0.023-0.396-0.141l0,0c-0.117-0.105-0.064-0.273-0.143-0.396c-0.139-0.083-0.324-0.01-0.449-0.137l0.004-0.004
	c-0.131-0.121-0.059-0.304-0.131-0.441c-0.102-0.069-0.201-0.058-0.305-0.02c-0.111,0.133-0.012,0.338-0.154,0.461l0.004,0.004
	c-0.107,0.111-0.271,0.067-0.389,0.127c-0.088,0.129-0.027,0.299-0.152,0.402l0.004,0.004c-0.178,0.145-0.383,0.097-0.584,0.083
	c-0.199,0.023-0.398,0.024-0.598,0c-0.184,0.015-0.373,0.054-0.533-0.083l0.006-0.007c-0.127-0.1-0.064-0.269-0.143-0.39
	c-0.096-0.063-0.195-0.053-0.299-0.015c-0.105,0.115-0.023,0.303-0.154,0.407l0.002,0.003c-0.121,0.131-0.309,0.057-0.445,0.141
	c-0.086,0.137-0.01,0.327-0.145,0.445v0c-0.104,0.12-0.27,0.072-0.387,0.134c-0.092,0.146-0.014,0.336-0.15,0.455h0.002
	c-0.119,0.136-0.309,0.057-0.445,0.143c-0.08,0.121-0.023,0.29-0.145,0.393l0,0c-0.119,0.135-0.307,0.059-0.445,0.145
	c-0.086,0.137-0.008,0.326-0.143,0.444l0,0c-0.105,0.119-0.27,0.072-0.387,0.133c-0.092,0.147-0.014,0.336-0.148,0.456l0,0
	c-0.121,0.136-0.311,0.057-0.445,0.143c-0.08,0.121-0.023,0.29-0.145,0.393l0,0c-0.119,0.132-0.307,0.064-0.44,0.137
	c-0.091,0.145-0.013,0.334-0.149,0.452h0.002c-0.104,0.119-0.27,0.071-0.388,0.134c-0.091,0.146-0.013,0.336-0.149,0.455h0.001
	c-0.12,0.136-0.309,0.058-0.446,0.144c-0.078,0.121-0.023,0.289-0.142,0.393l-0.002-0.001c-0.118,0.136-0.308,0.059-0.453,0.151
	c-0.056,0.156-0.035,0.326-0.045,0.493c0.035,0.463,0.012,0.927,0.012,1.39c0,0.1-0.024,0.194-0.094,0.271
	c-0.005,0.193-0.009,0.387-0.014,0.58c-0.097,0.131-0.271,0.066-0.389,0.15c-0.075,0.119-0.021,0.287-0.139,0.393l-0.002-0.002
	c-0.12,0.134-0.309,0.059-0.445,0.144c-0.084,0.138-0.01,0.326-0.142,0.447l0,0c-0.121,0.131-0.309,0.057-0.447,0.142
	c-0.085,0.138-0.01,0.326-0.142,0.447l0,0c-0.105,0.118-0.273,0.063-0.395,0.141c-0.078,0.121-0.022,0.289-0.141,0.395l0,0
	c-0.121,0.131-0.309,0.058-0.447,0.143c-0.084,0.138-0.01,0.325-0.142,0.446l0,0c-0.121,0.131-0.309,0.058-0.447,0.143
	c-0.084,0.138-0.01,0.325-0.142,0.446l0,0c-0.104,0.118-0.273,0.063-0.395,0.141c-0.078,0.121-0.022,0.289-0.141,0.396l0,0
	c-0.121,0.131-0.309,0.057-0.447,0.142c-0.085,0.138-0.01,0.326-0.143,0.447l0,0c-0.12,0.131-0.308,0.057-0.447,0.142
	c-0.084,0.138-0.01,0.326-0.142,0.446l0,0c-0.105,0.119-0.272,0.063-0.394,0.141c-0.079,0.12-0.022,0.29-0.142,0.395h0.001
	c-0.122,0.128-0.307,0.065-0.44,0.134c-0.103,0.158,0.001,0.37-0.156,0.501c-0.193,0-0.387-0.002-0.58-0.002
	c-0.144-0.131-0.061-0.325-0.138-0.488c-0.132-0.078-0.288-0.039-0.435-0.06c-0.191,0.015-0.386,0.056-0.551-0.089h0.001
	c-0.124-0.101-0.072-0.27-0.139-0.386c-0.143-0.091-0.334-0.01-0.451-0.15l0.001,0.001c-0.141-0.116-0.059-0.308-0.146-0.443
	c-0.12-0.08-0.29-0.02-0.39-0.146l0.001,0.001c-0.141-0.116-0.061-0.308-0.147-0.442c-0.136-0.088-0.327-0.007-0.442-0.147
	l0.001,0.001c-0.136-0.147-0.107-0.324-0.091-0.498c-0.012-0.157,0.003-0.318-0.039-0.465c-0.144-0.107-0.339-0.021-0.456-0.16
	c0-0.193,0-0.387-0.001-0.58c0.11-0.137,0.285-0.071,0.428-0.138c0.101-0.11,0.026-0.298,0.153-0.405l0.001,0.002
	c0.12-0.134,0.309-0.059,0.446-0.144c0.085-0.138,0.011-0.326,0.142-0.447l0,0c0.106-0.115,0.27-0.07,0.388-0.131
	c0.091-0.148,0.016-0.337,0.148-0.458l0,0c0.121-0.132,0.31-0.057,0.447-0.141c0.078-0.122,0.024-0.29,0.142-0.395l0,0
	c0.122-0.129,0.306-0.063,0.442-0.134c0.089-0.146,0.015-0.334,0.147-0.454l0,0c0.105-0.117,0.27-0.072,0.388-0.131
	c0.091-0.149,0.016-0.338,0.147-0.459l0,0c0.122-0.133,0.31-0.058,0.447-0.141c0.077-0.122,0.024-0.289,0.142-0.395l0,0
	c0.121-0.133,0.308-0.058,0.447-0.142c0.084-0.139,0.01-0.327,0.142-0.447l0,0c0.104-0.118,0.272-0.064,0.395-0.142
	c0.083-0.138,0.008-0.326,0.141-0.447l0,0c0.123-0.129,0.308-0.063,0.442-0.133c0.084-0.129,0.028-0.298,0.149-0.4l-0.003-0.003
	c0.122-0.131,0.309-0.058,0.445-0.14c0.091-0.136,0.007-0.328,0.152-0.441c0.175-0.005,0.351-0.01,0.526-0.015
	c0.077-0.068,0.172-0.093,0.271-0.093c0.463,0,0.926-0.023,1.388,0.011c0.167-0.005,0.335,0.005,0.49-0.036
	c0.099-0.15,0.02-0.342,0.157-0.46v-0.001c0.118-0.136,0.308-0.06,0.465-0.161c0.041-0.265,0.041-0.541,0-0.806
	c-0.159-0.101-0.347-0.025-0.467-0.16h0c-0.134-0.12-0.058-0.308-0.144-0.445c-0.137-0.085-0.326-0.009-0.445-0.144l0,0
	c-0.118-0.104-0.069-0.271-0.131-0.387c-0.131-0.085-0.3-0.028-0.404-0.149l0,0c-0.134-0.119-0.059-0.308-0.144-0.445
	c-0.138-0.085-0.326-0.01-0.446-0.144l0,0.001c-0.134-0.12-0.058-0.309-0.144-0.446c-0.137-0.085-0.326-0.009-0.445-0.144l0,0
	c-0.118-0.104-0.069-0.271-0.131-0.387c-0.13-0.085-0.3-0.027-0.404-0.148l0,0c-0.134-0.12-0.058-0.308-0.143-0.445
	c-0.137-0.085-0.326-0.009-0.446-0.143l0,0c-0.131-0.121-0.063-0.307-0.136-0.442c-0.147-0.087-0.333-0.016-0.457-0.142l0.005-0.006
	c-0.111-0.097-0.082-0.249-0.157-0.396c-0.508-0.088-1.041,0.002-1.566-0.052c-0.182,0.016-0.369,0.053-0.524-0.087h0.001
	c-0.139-0.118-0.06-0.308-0.146-0.444c-0.136-0.086-0.326-0.007-0.443-0.146v0.001c-0.134-0.118-0.064-0.306-0.138-0.439
	c-0.144-0.091-0.334-0.013-0.451-0.15v0c-0.124-0.102-0.064-0.272-0.144-0.392c-0.12-0.08-0.29-0.021-0.392-0.144l0,0
	c-0.135-0.119-0.064-0.306-0.137-0.438C245.412,249.136,245.218,249.221,245.105,249.074z"/>
<path style="fill:#0B0A0B;" d="M257.099,261.657c-0.006-0.193-0.012-0.387-0.018-0.581c-0.139-0.375-0.164-0.751,0.018-1.121h-0.002
	c0.115-0.14,0.305-0.065,0.436-0.142c0.094-0.142,0.012-0.333,0.154-0.449l-0.002,0.002c0.1-0.126,0.27-0.072,0.385-0.14
	c0.092-0.143,0.01-0.335,0.152-0.451l-0.002,0.002c0.117-0.14,0.307-0.064,0.439-0.14c0.084-0.127,0.023-0.298,0.152-0.397
	l-0.002,0.002c0.115-0.143,0.307-0.061,0.441-0.148c0.088-0.135,0.006-0.327,0.148-0.441l-0.002,0.002
	c0.373-0.18,0.746-0.158,1.123-0.017c0.193,0.006,0.387,0.012,0.58,0.017c0.145,0.114,0.059,0.308,0.15,0.441
	c0.119,0.076,0.287,0.022,0.393,0.141l-0.002,0.002c0.121,0.103,0.064,0.271,0.143,0.393c0.139,0.084,0.326,0.008,0.447,0.142
	c0.133,0.119,0.057,0.309,0.143,0.446c0.137,0.084,0.326,0.01,0.447,0.143c0.131,0.12,0.057,0.309,0.141,0.446
	c0.121,0.077,0.291,0.023,0.393,0.143c0.117,0.104,0.072,0.27,0.135,0.389c0.146,0.089,0.334,0.013,0.455,0.146
	c0.133,0.12,0.059,0.308,0.143,0.445c0.139,0.085,0.326,0.011,0.447,0.144c0.133,0.121,0.057,0.31,0.141,0.446
	c0.123,0.078,0.289,0.023,0.395,0.142c0.115,0.106,0.07,0.271,0.135,0.39c0.145,0.089,0.334,0.014,0.453,0.146
	c0.133,0.121,0.059,0.31,0.143,0.447c0.139,0.085,0.326,0.01,0.445,0.142l0,0c0.131,0.123,0.063,0.308,0.135,0.442
	c0.129,0.084,0.297,0.028,0.4,0.148l0.002-0.002c0.137,0.159,0.1,0.343,0.084,0.524c0.018,0.192,0.027,0.385,0,0.578
	c0.008,0.187,0.031,0.373-0.023,0.557c-0.01,0.026-0.025,0.052-0.045,0.072c-0.121,0.101-0.291,0.035-0.418,0.118
	c-0.072,0.118-0.025,0.262-0.088,0.379c-0.014,0.023-0.031,0.043-0.057,0.059c-0.133,0.079-0.299,0.02-0.439,0.095
	c-0.088,0.131-0.02,0.296-0.092,0.433c-0.014,0.023-0.031,0.043-0.055,0.06c-0.133,0.081-0.297,0.021-0.439,0.095
	c-0.092,0.128-0.023,0.295-0.094,0.431c-0.012,0.024-0.029,0.044-0.053,0.061c-0.115,0.074-0.26,0.034-0.383,0.091
	c-0.098,0.117-0.031,0.279-0.109,0.4c-0.016,0.024-0.035,0.042-0.059,0.056c-0.135,0.073-0.297,0.016-0.428,0.095
	c-0.096,0.153,0.008,0.36-0.145,0.493c-0.193,0.001-0.385,0.001-0.578,0.003c-0.156-0.133-0.057-0.343-0.145-0.491
	c-0.129-0.077-0.295-0.026-0.398-0.143l0.002-0.001c-0.121-0.104-0.064-0.273-0.145-0.395c-0.137-0.083-0.326-0.01-0.447-0.141l0,0
	c-0.131-0.12-0.057-0.309-0.141-0.446c-0.139-0.085-0.326-0.011-0.447-0.142l0,0c-0.131-0.123-0.057-0.311-0.141-0.448
	c-0.123-0.077-0.291-0.024-0.395-0.141l0,0c-0.117-0.106-0.064-0.273-0.141-0.396c-0.139-0.084-0.326-0.01-0.449-0.141l0,0
	c-0.131-0.121-0.057-0.309-0.141-0.446c-0.139-0.085-0.326-0.012-0.447-0.143l0,0c-0.133-0.121-0.057-0.309-0.141-0.448
	c-0.123-0.076-0.289-0.023-0.396-0.141h0.002c-0.117-0.104-0.064-0.272-0.143-0.395c-0.137-0.084-0.324-0.009-0.447-0.141v0.001
	c-0.131-0.122-0.057-0.311-0.141-0.448c-0.139-0.085-0.326-0.011-0.447-0.142l0,0c-0.129-0.123-0.063-0.308-0.133-0.443
	c-0.129-0.082-0.299-0.027-0.402-0.147l-0.002,0.002c-0.115-0.104-0.063-0.271-0.139-0.393
	C257.405,261.716,257.214,261.8,257.099,261.657z"/>
<path style="fill:#949698;" d="M256.501,248.48c0.953,0,1.906,0,2.879,0c0,0.408,0,0.785,0,1.192c-0.203,0-0.389,0-0.574,0
	c0-0.185,0-0.37,0-0.596c-0.779,0-1.537,0-2.295,0c-0.146-0.16-0.104-0.342-0.067-0.525
	C256.457,248.522,256.476,248.499,256.501,248.48z"/>
<path style="fill:#505052;" d="M260.524,247.953c-0.184,0-0.369,0-0.59,0c0-0.98,0-1.936,0-2.891
	c0.193-0.13,0.385-0.134,0.574,0.008c0.006,0.764,0.01,1.528,0.014,2.293C260.651,247.559,260.661,247.756,260.524,247.953z"/>
<path style="fill:#A0A2A4;" d="M266.788,253.636c0-0.573,0-1.146,0-1.72c0.213-0.138,0.422-0.146,0.629,0.014
	c0,0.564,0,1.129,0,1.694C267.21,253.781,267.001,253.775,266.788,253.636z"/>
<path style="fill:#C9CACC;" d="M253.074,257.639c-0.571,0.001-1.142,0.001-1.712,0.001c0-0.177,0-0.354,0-0.573
	c0.589,0,1.154,0,1.719,0C253.213,257.258,253.216,257.45,253.074,257.639z"/>
<path style="fill:#C6C8CA;" d="M254.797,261.076c0-0.571,0-1.142,0.001-1.713c0.189-0.142,0.38-0.139,0.573-0.007
	c0,0.559,0,1.116,0,1.72C255.164,261.076,254.98,261.076,254.797,261.076z"/>
<path style="fill:#737477;" d="M251.359,250.21c-0.166,0-0.331,0-0.528,0c0-0.596,0-1.159,0-1.721
	c0.179-0.127,0.354-0.133,0.526,0.013C251.359,249.072,251.359,249.641,251.359,250.21z"/>
<path style="fill:#656769;" d="M247.932,251.388c0.555,0,1.111,0,1.72,0c0,0.186,0,0.358,0,0.53
	c-0.569-0.001-1.138-0.003-1.707-0.004C247.802,251.742,247.806,251.567,247.932,251.388z"/>
<path style="fill:#DDDEDF;" d="M260.521,257.638c-0.375,0.005-0.748,0.011-1.123,0.017c0-0.185,0-0.37,0-0.575
	c0.381,0,0.73,0,1.123,0C260.521,257.272,260.521,257.455,260.521,257.638z"/>
<path style="fill:#D4D5D7;" d="M257.099,259.955c-0.006,0.373-0.012,0.748-0.018,1.121c-0.178,0-0.354,0-0.557,0
	c0-0.368,0-0.719,0-1.121C256.717,259.955,256.907,259.955,257.099,259.955z"/>
<path style="fill:#BCBDC0;" d="M256.503,254.222c0,0.185,0,0.37,0,0.573c-0.375,0-0.735,0-1.128,0c0-0.188,0-0.379,0-0.57
	C255.75,254.224,256.127,254.223,256.503,254.222z"/>
<path style="fill:#A9ABAD;" d="M253.667,255.935c0.185,0,0.37,0,0.573,0c0,0.375,0,0.734,0,1.127c-0.189,0-0.381,0-0.572,0
	C253.667,256.685,253.667,256.31,253.667,255.935z"/>
<path style="fill:#3F3F40;" d="M256.501,247.366c0,0.371,0,0.742,0,1.114l-0.006,0.012l0.008,0.011
	c-0.181,0.121-0.358,0.126-0.532-0.016c0-0.37,0.001-0.74,0.001-1.11C256.146,247.233,256.322,247.238,256.501,247.366z"/>
<path style="fill:#646567;" d="M263.94,267.97c0-0.195,0-0.39,0-0.629c0.213,0,0.406,0,0.596,0c0.145,0.214,0.143,0.427-0.01,0.636
	C264.331,267.974,264.136,267.973,263.94,267.97z"/>
<path style="fill:#96989A;" d="M248.52,267.973c0-0.201,0-0.402,0-0.635c0.215,0,0.406,0,0.597,0c0,0.203,0,0.405,0,0.635
	C248.904,267.973,248.712,267.973,248.52,267.973z"/>
<path style="fill:#DDDEDF;" d="M266.788,253.636c0.211-0.004,0.42-0.008,0.629-0.012c0,0.182,0,0.365,0,0.6
	c-0.221,0-0.426,0-0.631,0C266.788,254.029,266.788,253.832,266.788,253.636z"/>
<path style="fill:#D7D8DA;" d="M246.816,267.334c0.194,0.001,0.387,0.004,0.581,0.007c0.152,0.208,0.147,0.42,0.012,0.636
	c-0.183,0-0.367,0-0.592,0C246.816,267.747,246.816,267.539,246.816,267.334z"/>
<path style="fill:#696B6D;" d="M266.786,265.093c0-0.196,0-0.393,0.002-0.588c0.207-0.148,0.416-0.149,0.627-0.007
	c0.002,0.195,0.004,0.39,0.006,0.584C267.212,265.234,267.001,265.237,266.786,265.093z"/>
<path style="fill:#4B4B4D;" d="M267.415,264.498c-0.209,0.002-0.42,0.005-0.627,0.007c-0.002-0.2-0.002-0.4-0.002-0.601
	c0.213-0.134,0.424-0.141,0.631,0.013C267.417,264.111,267.417,264.305,267.415,264.498z"/>
<path style="fill:#A5A7AA;" d="M253.074,257.639c0.002-0.19,0.005-0.382,0.007-0.572c0.196-0.002,0.391-0.004,0.587-0.005
	c0,0.184,0,0.368,0,0.577C253.457,257.639,253.266,257.639,253.074,257.639z"/>
<path style="fill:#B1B3B6;" d="M256.501,257.647c0-0.185,0-0.37,0-0.59c0.207,0,0.398,0,0.59,0c0,0.184,0,0.367,0,0.59
	C256.882,257.647,256.692,257.647,256.501,257.647z"/>
<path style="fill:#A6A8AA;" d="M250.835,257.655c0,0.185,0,0.368,0,0.581c-0.215,0-0.406,0-0.597,0c0-0.184,0-0.368,0-0.581
	C250.453,257.655,250.644,257.655,250.835,257.655z"/>
<path style="fill:#DDDEDF;" d="M259.399,257.653c0,0.186,0,0.371,0,0.59c-0.207,0-0.398,0-0.59,0c0-0.184,0-0.366,0-0.59
	C259.022,257.653,259.21,257.653,259.399,257.653z"/>
<path style="fill:#747678;" d="M247.406,245.663c0,0.182,0,0.363,0,0.579c-0.218,0-0.407,0-0.596,0c0-0.185,0-0.371,0-0.579
	C247.021,245.663,247.214,245.663,247.406,245.663z"/>
<path style="fill:#4B4B4D;" d="M248.531,246.242c-0.184,0-0.368,0-0.595,0c0-0.212,0-0.395,0-0.578
	c0.194-0.001,0.389-0.003,0.583-0.004C248.668,245.851,248.664,246.046,248.531,246.242z"/>
<path style="fill:#D6D8D9;" d="M248.531,246.242c-0.003-0.194-0.008-0.388-0.012-0.583c0.184,0,0.367,0,0.593,0
	c0,0.211,0,0.4,0,0.589C248.918,246.247,248.726,246.244,248.531,246.242z"/>
<path style="fill:#D9DADB;" d="M257.687,245.66c0,0.185,0,0.371,0,0.59c-0.207,0-0.398,0-0.59,0c0-0.183,0-0.366,0-0.59
	C257.308,245.66,257.497,245.66,257.687,245.66z"/>
<path style="fill:#A2A4A7;" d="M255.372,259.357c-0.191,0.002-0.382,0.005-0.573,0.007c0-0.186,0-0.37,0-0.593
	c0.196,0,0.387,0,0.578,0C255.375,258.965,255.374,259.161,255.372,259.357z"/>
<path style="fill:#949699;" d="M262.821,259.362c-0.186,0-0.369,0-0.59,0c0-0.208,0-0.399,0-0.589c0.184,0,0.367,0,0.59,0
	C262.821,258.98,262.821,259.17,262.821,259.362z"/>
<path style="fill:#898B8D;" d="M249.114,259.361c0,0.184,0,0.367,0,0.589c-0.208,0-0.398,0-0.588,0c0-0.185,0-0.369,0-0.589
	C248.733,259.361,248.924,259.361,249.114,259.361z"/>
<path style="fill:#DDDEDF;" d="M257.687,259.365c0,0.187,0,0.371,0,0.591c-0.207,0-0.398,0-0.59,0c0-0.183,0-0.366,0-0.591
	C257.308,259.365,257.497,259.365,257.687,259.365z"/>
<path style="fill:#D7D8DA;" d="M250.236,247.374c-0.186,0-0.371,0-0.59,0c0-0.207,0-0.398,0-0.59c0.183,0,0.365,0,0.59,0
	C250.236,246.995,250.236,247.185,250.236,247.374z"/>
<path style="fill:#949699;" d="M264.534,261.074c-0.186,0-0.369,0-0.59,0c0-0.208,0-0.398,0-0.589c0.184,0,0.369,0,0.59,0
	C264.534,260.693,264.534,260.883,264.534,261.074z"/>
<path style="fill:#898B8D;" d="M247.402,261.074c0,0.184,0,0.367,0,0.588c-0.209,0-0.399,0-0.589,0c0-0.185,0-0.369,0-0.588
	C247.02,261.074,247.211,261.074,247.402,261.074z"/>
<path style="fill:#4B4B4D;" d="M262.237,247.365c-0.201,0-0.402,0-0.602,0c-0.129-0.195-0.135-0.388,0.012-0.578
	c0.193,0.001,0.387,0.001,0.582,0.001C262.37,246.979,262.366,247.171,262.237,247.365z"/>
<path style="fill:#707274;" d="M262.237,247.365c-0.004-0.192-0.006-0.384-0.008-0.576c0.186,0,0.371,0,0.596,0
	c0,0.193,0,0.384,0,0.576C262.628,247.365,262.435,247.365,262.237,247.365z"/>
<path style="fill:#717375;" d="M245.687,247.366c0,0.182,0,0.365,0,0.595c-0.204,0-0.391,0-0.58,0c0-0.186,0-0.372,0-0.595
	C245.303,247.366,245.495,247.366,245.687,247.366z"/>
<path style="fill:#D8D9DB;" d="M250.824,247.964c-0.185,0-0.371,0-0.589,0c0-0.208,0-0.399,0-0.591c0.183,0,0.365,0,0.589,0
	C250.824,247.585,250.824,247.774,250.824,247.964z"/>
<path style="fill:#85878A;" d="M260.524,247.953c0-0.197-0.002-0.394-0.002-0.59c0.195,0.002,0.391,0.004,0.586,0.007
	c0,0.183,0,0.365,0,0.583C260.901,247.953,260.714,247.953,260.524,247.953z"/>
<path style="fill:#898B8D;" d="M253.667,262.788c0-0.184,0-0.368,0-0.591c0.208,0,0.397,0,0.587,0c0,0.186,0,0.369,0,0.591
	C254.048,262.788,253.857,262.788,253.667,262.788z"/>
<path style="fill:#949699;" d="M266.245,262.786c-0.184,0-0.367,0-0.588,0c0-0.207,0-0.397,0-0.589c0.186,0,0.369,0,0.588,0
	C266.245,262.406,266.245,262.596,266.245,262.786z"/>
<path style="fill:#898B8D;" d="M245.688,262.786c0,0.184,0,0.368,0,0.591c-0.208,0-0.397,0-0.587,0c0-0.186,0-0.371,0-0.591
	C245.306,262.786,245.498,262.786,245.688,262.786z"/>
<path style="fill:#898B8D;" d="M253.078,263.377c0-0.185,0-0.368,0-0.589c0.208,0,0.398,0,0.589,0c0,0.184,0,0.368,0,0.589
	C253.459,263.377,253.269,263.377,253.078,263.377z"/>
<path style="fill:#525254;" d="M264.538,249.078c-0.182,0-0.365,0-0.59,0c0-0.211,0-0.4,0-0.59c0.186,0,0.371,0,0.59,0
	C264.538,248.695,264.538,248.887,264.538,249.078z"/>
<path style="fill:#C6C7C9;" d="M245.105,249.074c0.185,0,0.369,0,0.586,0c0,0.211,0,0.403,0,0.595c-0.184,0-0.367,0-0.586,0
	C245.105,249.456,245.105,249.265,245.105,249.074z"/>
<path style="fill:#7F8083;" d="M258.216,262.788c0.184,0,0.367,0,0.588,0c0,0.208,0,0.399,0,0.59c-0.184,0-0.369,0-0.588,0
	C258.216,263.171,258.216,262.979,258.216,262.788z"/>
<path style="fill:#898B8D;" d="M251.953,264.501c0-0.185,0-0.369,0-0.589c0.208,0,0.399,0,0.589,0c0,0.184,0,0.369,0,0.589
	C252.335,264.501,252.144,264.501,251.953,264.501z"/>
<path style="fill:#57585A;" d="M244.521,264.498c0.178,0,0.354,0,0.577,0c0,0.213,0,0.405,0,0.596
	c-0.196,0.133-0.392,0.137-0.582-0.012C244.517,264.888,244.519,264.692,244.521,264.498z"/>
<path style="fill:#898B8D;" d="M251.364,265.09c0-0.186,0-0.369,0-0.589c0.208,0,0.399,0,0.589,0c0,0.184,0,0.369,0,0.589
	C251.747,265.09,251.555,265.09,251.364,265.09z"/>
<path style="fill:#C3C5C7;" d="M246.227,250.204c0.185,0,0.37,0,0.589,0c0,0.207,0,0.398,0,0.589c-0.183,0-0.366,0-0.589,0
	C246.227,250.583,246.227,250.393,246.227,250.204z"/>
<path style="fill:#C2C4C6;" d="M251.95,250.798c-0.185,0-0.371,0-0.583,0c0-0.209,0-0.401,0-0.594c0.182,0,0.363,0,0.583,0
	C251.95,250.421,251.95,250.61,251.95,250.798z"/>
<path style="fill:#8E9093;" d="M258.796,250.204c0.002,0.199,0.002,0.397,0.002,0.596c-0.195,0.134-0.387,0.135-0.576-0.011
	c0-0.192,0.002-0.385,0.002-0.578C258.413,250.068,258.604,250.069,258.796,250.204z"/>
<path style="fill:#545456;" d="M266.247,250.795c-0.182,0-0.365,0-0.586,0c0-0.216,0-0.404,0-0.593c0.186,0,0.371,0,0.586,0
	C266.247,250.41,266.247,250.602,266.247,250.795z"/>
<path style="fill:#C2C4C6;" d="M246.816,250.792c0.185,0,0.37,0,0.59,0c0,0.207,0,0.398,0,0.59c-0.184,0-0.367,0-0.59,0
	C246.816,251.172,246.816,250.983,246.816,250.792z"/>
<path style="fill:#C3C5C7;" d="M252.539,251.387c-0.185,0-0.37,0-0.589,0c0-0.207,0-0.399,0-0.589c0.183,0,0.366,0,0.589,0
	C252.539,251.008,252.539,251.198,252.539,251.387z"/>
<path style="fill:#D5D7D8;" d="M258.222,250.789c0.191,0.003,0.385,0.007,0.576,0.011c0.002,0.195,0.004,0.391,0.006,0.585
	c-0.182,0-0.363,0-0.582,0C258.222,251.167,258.222,250.978,258.222,250.789z"/>
<path style="fill:#7F8083;" d="M259.929,264.501c0.184,0,0.367,0,0.588,0c0,0.209,0,0.399,0,0.589c-0.186,0-0.369,0-0.588,0
	C259.929,264.884,259.929,264.692,259.929,264.501z"/>
<path style="fill:#898B8D;" d="M250.24,266.213c0-0.184,0-0.367,0-0.589c0.209,0,0.399,0,0.589,0c0,0.186,0,0.37,0,0.589
	C250.622,266.213,250.431,266.213,250.24,266.213z"/>
<path style="fill:#898B8D;" d="M249.651,266.803c0-0.185,0-0.368,0-0.59c0.209,0,0.399,0,0.589,0c0,0.186,0,0.37,0,0.59
	C250.033,266.803,249.842,266.803,249.651,266.803z"/>
<path style="fill:#7F8083;" d="M261.642,266.215c0.184,0,0.367,0,0.588,0c0,0.208,0,0.397,0,0.588c-0.184,0-0.369,0-0.588,0
	C261.642,266.596,261.642,266.406,261.642,266.215z"/>
<path style="fill:#A7A9AB;" d="M249.647,251.924c0.185,0,0.371,0,0.593,0c0,0.201,0,0.393,0,0.584c-0.183,0-0.366,0-0.593,0
	C249.647,252.302,249.647,252.114,249.647,251.924z"/>
<path style="fill:#C5C7C9;" d="M253.664,252.512c-0.185,0-0.37,0-0.589,0c0-0.207,0-0.398,0-0.59c0.183,0,0.366,0,0.589,0
	C253.664,252.133,253.664,252.322,253.664,252.512z"/>
<path style="fill:#AEB0B2;" d="M258.804,251.918c0,0.186,0,0.371,0,0.592c-0.203,0-0.395,0-0.586,0c0-0.183,0-0.367,0-0.592
	C258.425,251.918,258.614,251.918,258.804,251.918z"/>
<path style="fill:#A7A9AB;" d="M250.24,252.508c0.185,0,0.369,0,0.589,0c0,0.207,0,0.397,0,0.588c-0.184,0-0.367,0-0.589,0
	C250.24,252.888,250.24,252.698,250.24,252.508z"/>
<path style="fill:#C6C7C9;" d="M254.252,253.101c-0.185,0-0.37,0-0.589,0c0-0.207,0-0.399,0-0.59c0.183,0,0.366,0,0.589,0
	C254.252,252.721,254.252,252.911,254.252,253.101z"/>
<path style="fill:#57585A;" d="M263.354,253.096c0-0.184,0-0.369,0-0.57c0.209,0,0.383,0,0.59,0c0,0.202,0,0.386,0,0.57
	C263.747,253.096,263.552,253.096,263.354,253.096z"/>
<path style="fill:#E1E2E3;" d="M266.259,266.227c-0.008,0.177-0.016,0.354-0.025,0.558c-0.195,0.011-0.379,0.021-0.563,0.03
	c-0.029-0.014-0.051-0.036-0.066-0.064c-0.049-0.185-0.08-0.368,0.057-0.534l-0.002,0.001c0.166-0.139,0.35-0.106,0.535-0.057
	C266.224,266.176,266.245,266.198,266.259,266.227z"/>
<path style="fill:#A7A9AB;" d="M253.078,255.345c0.185,0,0.369,0,0.589,0c0,0.207,0,0.397,0,0.589c-0.184,0-0.368,0-0.589,0
	C253.078,255.725,253.078,255.535,253.078,255.345z"/>
<path style="fill:#A7A9AB;" d="M251.364,253.632c0.185,0,0.37,0,0.589,0c0,0.207,0,0.398,0,0.59c-0.184,0-0.368,0-0.589,0
	C251.364,254.012,251.364,253.822,251.364,253.632z"/>
<path style="fill:#C7C9CB;" d="M255.376,254.225c-0.185,0-0.37,0-0.59,0c0-0.206,0-0.398,0-0.589c0.183,0,0.366,0,0.59,0
	C255.376,253.846,255.376,254.035,255.376,254.225z"/>
<path style="fill:#AEB0B2;" d="M257.093,253.634c0,0.184,0,0.369,0,0.589c-0.207,0-0.397,0-0.588,0c0-0.185,0-0.368,0-0.589
	C256.714,253.634,256.903,253.634,257.093,253.634z"/>
<path style="fill:#B1B3B6;" d="M259.927,254.22c0-0.185,0-0.37,0-0.586c0.209,0,0.4,0,0.592,0c0,0.183,0,0.366,0,0.586
	C260.308,254.22,260.118,254.22,259.927,254.22z"/>
<path style="fill:#939598;" d="M261.638,253.639c0.199,0.001,0.398,0.001,0.598,0.002c0.135,0.192,0.135,0.384-0.008,0.572
	c-0.193,0.001-0.387,0.002-0.578,0.003C261.503,254.027,261.503,253.834,261.638,253.639z"/>
<path style="fill:#B6B8BA;" d="M262.228,254.214c0.002-0.191,0.004-0.381,0.008-0.572c0.193-0.002,0.391-0.005,0.586-0.007
	c0,0.183,0,0.365,0,0.579C262.606,254.214,262.417,254.214,262.228,254.214z"/>
<path style="fill:#A7A9AB;" d="M251.953,254.22c0.185,0,0.37,0,0.589,0c0,0.208,0,0.398,0,0.589c-0.184,0-0.368,0-0.589,0
	C251.953,254.601,251.953,254.411,251.953,254.22z"/>
<path style="fill:#898B8D;" d="M265.069,254.222c0.184,0,0.367,0,0.588,0c0,0.208,0,0.398,0,0.588c-0.184,0-0.369,0-0.588,0
	C265.069,254.604,265.069,254.413,265.069,254.222z"/>
<path style="fill:#D5D7D8;" d="M245.104,265.62c0.185,0,0.37,0,0.589,0c0,0.206,0,0.398,0,0.59c-0.182,0-0.365,0-0.589,0
	C245.104,265.999,245.104,265.81,245.104,265.62z"/>
<path style="fill:#B1B3B6;" d="M258.216,255.933c0-0.185,0-0.37,0-0.589c0.205,0,0.396,0,0.588,0c0,0.184,0,0.367,0,0.589
	C258.595,255.933,258.403,255.933,258.216,255.933z"/>
<path style="fill:#A2A4A7;" d="M267.417,263.917c-0.211-0.005-0.422-0.009-0.631-0.013c-0.002-0.176-0.004-0.353-0.004-0.529
	c0.201,0,0.402,0,0.635,0C267.417,263.571,267.417,263.744,267.417,263.917z"/>
<path style="fill:#58595B;" d="M247.409,267.977c-0.004-0.213-0.008-0.425-0.012-0.636c0.167,0,0.334,0,0.543,0
	c0,0.227,0,0.429,0,0.629C247.763,267.973,247.586,267.974,247.409,267.977z"/>
<path style="fill:#E2E3E4;" d="M264.526,267.977c0.004-0.212,0.008-0.425,0.01-0.636l-0.002-0.002
	c0.148-0.125,0.314-0.104,0.484-0.054c0.027,0.015,0.049,0.037,0.063,0.066c0,0.193,0,0.387,0,0.625
	C264.872,267.977,264.7,267.977,264.526,267.977z"/>
<path style="fill:#8D8F92;" d="M262.819,267.339c0.166,0,0.332,0,0.543,0c0,0.22,0,0.426,0,0.632c-0.168,0-0.336,0-0.543,0
	C262.819,267.758,262.819,267.548,262.819,267.339z"/>
<path style="fill:#E2E3E4;" d="M266.786,265.093c0.211-0.003,0.424-0.007,0.635-0.011c0,0.167,0,0.332,0,0.525
	c-0.227,0.01-0.426,0.02-0.625,0.028c-0.029-0.013-0.051-0.033-0.066-0.063c-0.051-0.169-0.072-0.334,0.053-0.483L266.786,265.093z"
	/>
<path style="fill:#E4E4E6;" d="M267.417,251.93c-0.209-0.005-0.42-0.01-0.629-0.014c0-0.178-0.002-0.356-0.002-0.534
	c0.199,0,0.398,0,0.631,0C267.417,251.587,267.417,251.759,267.417,251.93z"/>
<path style="fill:#B0B2B5;" d="M259.933,244.528c-0.182-0.001-0.361-0.002-0.543-0.005c0-0.182,0-0.365,0-0.563
	c0.186,0,0.34,0,0.543,0C259.933,244.149,259.933,244.338,259.933,244.528z"/>
<path style="fill:#D9DADB;" d="M258.812,244.535c0,0.168,0,0.335,0,0.537c-0.207,0-0.4,0-0.592,0c0-0.165,0-0.331,0-0.537
	C258.433,244.535,258.622,244.535,258.812,244.535z"/>
<path style="fill:#747678;" d="M260.509,245.07c-0.191-0.003-0.383-0.006-0.574-0.008c-0.002-0.176-0.004-0.352-0.008-0.528
	c0.189,0,0.379,0,0.582,0C260.509,244.726,260.509,244.898,260.509,245.07z"/>
<path style="fill:#D9DADB;" d="M258.22,245.072c0,0.185,0,0.37,0,0.589c-0.188,0-0.361,0-0.535,0c0-0.183,0-0.366,0-0.589
	C257.878,245.072,258.05,245.072,258.22,245.072z"/>
<path style="fill:#696A6C;" d="M246.812,246.243c0,0.165,0,0.331,0,0.535c-0.211,0-0.401,0-0.59,0c0-0.168,0-0.335,0-0.535
	C246.428,246.243,246.62,246.243,246.812,246.243z"/>
<path style="fill:#AEB0B2;" d="M257.683,253.099c0,0.167,0,0.334,0,0.535c-0.207,0-0.398,0-0.59,0c0-0.166,0-0.332,0-0.535
	C257.302,253.099,257.493,253.099,257.683,253.099z"/>
<path style="fill:#D9DADB;" d="M257.097,246.249c0,0.167,0,0.335,0,0.537c-0.206,0-0.398,0-0.59,0c0-0.165,0-0.331,0-0.537
	C256.719,246.249,256.907,246.249,257.097,246.249z"/>
<path style="fill:#696A6C;" d="M246.222,246.778c0,0.183,0,0.365,0,0.59c-0.192,0-0.364,0-0.535,0c0-0.185,0-0.37,0-0.59
	C245.875,246.778,246.049,246.778,246.222,246.778z"/>
<path style="fill:#D9DADB;" d="M256.501,247.366c-0.176,0.003-0.352,0.007-0.529,0.011c0-0.183,0-0.367,0-0.593
	c0.192,0,0.364,0,0.536,0C256.506,246.978,256.504,247.172,256.501,247.366z"/>
<path style="fill:#97999C;" d="M261.647,246.787c-0.004,0.193-0.008,0.385-0.012,0.578c-0.176,0.001-0.354,0.002-0.529,0.003
	c0-0.184,0-0.369,0-0.581C261.3,246.787,261.474,246.787,261.647,246.787z"/>
<path style="fill:#525254;" d="M263.36,247.954c-0.166,0-0.33,0-0.539,0c0-0.211,0-0.399,0-0.588c0.17,0,0.336,0,0.539,0
	C263.36,247.57,263.36,247.762,263.36,247.954z"/>
<path style="fill:#D5D7D8;" d="M246.228,266.798c0.186,0,0.371,0,0.59,0c0,0.188,0,0.361,0,0.536c-0.183,0-0.365,0-0.59,0
	C246.228,267.14,246.228,266.969,246.228,266.798z"/>
<path style="fill:#525254;" d="M263.95,248.49c-0.184,0-0.367,0-0.592,0c0-0.193,0-0.364,0-0.537c0.186,0,0.373,0,0.592,0
	C263.95,248.142,263.95,248.316,263.95,248.49z"/>
<path style="fill:#D7D8DA;" d="M255.971,248.487c0.177,0.005,0.354,0.011,0.532,0.016c0.003,0.191,0.005,0.383,0.008,0.574
	c-0.167,0-0.332,0-0.54,0C255.971,248.867,255.971,248.677,255.971,248.487z"/>
<path style="fill:#525254;" d="M265.073,249.668c-0.164,0-0.33,0-0.537,0c0-0.212,0-0.401,0-0.59c0.17,0,0.336,0,0.537,0
	C265.073,249.283,265.073,249.476,265.073,249.668z"/>
<path style="fill:#B3B5B7;" d="M258.796,250.204c-0.189,0.002-0.381,0.005-0.572,0.007c0-0.166,0-0.331,0-0.541
	c0.201,0,0.391,0,0.58,0C258.802,249.847,258.8,250.026,258.796,250.204z"/>
<path style="fill:#525254;" d="M265.663,250.203c-0.184,0-0.367,0-0.59,0c0-0.193,0-0.365,0-0.537c0.184,0,0.369,0,0.59,0
	C265.663,249.855,265.663,250.029,265.663,250.203z"/>
<path style="fill:#7C7E81;" d="M266.776,251.389c-0.166,0-0.33,0-0.525,0c0-0.219,0-0.409,0-0.598c0.168,0,0.334,0,0.525,0
	C266.776,251.004,266.776,251.196,266.776,251.389z"/>
<path style="fill:#8A8C8F;" d="M258.812,251.381c0.184,0,0.367,0,0.566,0c0,0.184,0,0.341,0,0.542c-0.189,0-0.379,0-0.57,0
	C258.808,251.741,258.81,251.561,258.812,251.381z"/>
<path style="fill:#AEB0B2;" d="M258.218,252.51c0,0.185,0,0.369,0,0.589c-0.189,0-0.363,0-0.535,0c0-0.184,0-0.367,0-0.589
	C257.874,252.51,258.046,252.51,258.218,252.51z"/>
<path style="fill:#898B8D;" d="M264.532,253.633c0.168,0,0.332,0,0.537,0c0,0.208,0,0.399,0,0.589c-0.168,0-0.336,0-0.537,0
	C264.532,254.015,264.532,253.824,264.532,253.633z"/>
<path style="fill:#949699;" d="M263.944,260.486c-0.184,0-0.367,0-0.59,0c0-0.189,0-0.363,0-0.535c0.186,0,0.369,0,0.59,0
	C263.944,260.139,263.944,260.313,263.944,260.486z"/>
<path style="fill:#898B8D;" d="M247.937,260.485c0,0.185,0,0.368,0,0.59c-0.19,0-0.363,0-0.535,0c0-0.185,0-0.37,0-0.59
	C247.591,260.485,247.764,260.485,247.937,260.485z"/>
<path style="fill:#B1B3B6;" d="M255.966,258.236c0-0.185,0-0.37,0-0.589c0.189,0,0.362,0,0.535,0c0,0.183,0,0.366,0,0.589
	C256.31,258.236,256.138,258.236,255.966,258.236z"/>
<path style="fill:#B1B3B6;" d="M258.804,255.344c0-0.167,0-0.334,0-0.536c0.205,0,0.398,0,0.588,0c0,0.166,0,0.332,0,0.536
	C259.185,255.344,258.993,255.344,258.804,255.344z"/>
<path style="fill:#949699;" d="M265.069,261.662c-0.166,0-0.334,0-0.535,0c0-0.207,0-0.397,0-0.588c0.166,0,0.332,0,0.535,0
	C265.069,261.281,265.069,261.472,265.069,261.662z"/>
<path style="fill:#898B8D;" d="M246.813,261.662c0,0.167,0,0.332,0,0.535c-0.209,0-0.398,0-0.589,0c0-0.167,0-0.334,0-0.535
	C246.431,261.662,246.622,261.662,246.813,261.662z"/>
<path style="fill:#8F9193;" d="M257.099,261.657c0.182,0,0.365,0,0.58,0c0,0.198,0,0.37,0,0.542c-0.186,0-0.369,0-0.58,0
	C257.099,262.006,257.099,261.832,257.099,261.657z"/>
<path style="fill:#949699;" d="M265.657,262.198c-0.184,0-0.367,0-0.588,0c0-0.188,0-0.361,0-0.535c0.184,0,0.367,0,0.588,0
	C265.657,261.853,265.657,262.026,265.657,262.198z"/>
<path style="fill:#898B8D;" d="M246.224,262.198c0,0.184,0,0.368,0,0.589c-0.19,0-0.363,0-0.536,0c0-0.185,0-0.368,0-0.589
	C245.878,262.198,246.051,262.198,246.224,262.198z"/>
<path style="fill:#6F7073;" d="M266.245,254.811c0-0.182,0-0.363,0-0.593c0.191,0,0.361,0,0.531,0c0,0.19,0,0.38,0,0.593
	C266.589,254.811,266.419,254.811,266.245,254.811z"/>
<path style="fill:#7F8083;" d="M257.681,262.198c0.166,0,0.332,0,0.535,0c0,0.211,0,0.401,0,0.591c-0.168,0-0.334,0-0.535,0
	C257.681,262.58,257.681,262.39,257.681,262.198z"/>
<path style="fill:#A4A6A9;" d="M261.644,258.237c-0.168,0-0.334,0-0.543,0c0-0.202,0-0.393,0-0.582c0.166,0,0.334,0,0.543,0
	C261.644,257.856,261.644,258.046,261.644,258.237z"/>
<path style="fill:#898B8D;" d="M250.241,258.239c0,0.166,0,0.332,0,0.533c-0.211,0-0.401,0-0.592,0c0-0.167,0-0.334,0-0.533
	C249.858,258.239,250.049,258.239,250.241,258.239z"/>
<path style="fill:#B1B3B5;" d="M255.378,258.772c0-0.167,0-0.335,0-0.536c0.205,0,0.396,0,0.588,0c0,0.165,0,0.331,0,0.536
	C255.758,258.772,255.568,258.772,255.378,258.772z"/>
<path style="fill:#DDDEDF;" d="M258.812,258.24c0,0.168,0,0.336,0,0.537c-0.207,0-0.398,0-0.592,0c0-0.165,0-0.33,0-0.537
	C258.433,258.24,258.622,258.24,258.812,258.24z"/>
<path style="fill:#949699;" d="M266.78,263.377c-0.166,0-0.332,0-0.535,0c0-0.209,0-0.399,0-0.591c0.168,0,0.334,0,0.535,0
	C266.78,262.995,266.78,263.186,266.78,263.377z"/>
<path style="fill:#96989A;" d="M245.1,263.375c0,0.167,0,0.333,0,0.543c-0.202,0-0.392,0-0.581,0c0-0.167,0-0.336,0-0.543
	C244.717,263.375,244.908,263.375,245.1,263.375z"/>
<path style="fill:#7F8083;" d="M258.804,263.377c0.184,0,0.367,0,0.588,0c0,0.19,0,0.363,0,0.535c-0.184,0-0.367,0-0.588,0
	C258.804,263.723,258.804,263.551,258.804,263.377z"/>
<path style="fill:#949699;" d="M262.231,258.773c-0.184,0-0.369,0-0.59,0c0-0.189,0-0.362,0-0.534c0.184,0,0.369,0,0.59,0
	C262.231,258.426,262.231,258.599,262.231,258.773z"/>
<path style="fill:#7F8083;" d="M259.392,263.912c0.168,0,0.332,0,0.537,0c0,0.209,0,0.398,0,0.589c-0.168,0-0.334,0-0.537,0
	C259.392,264.295,259.392,264.104,259.392,263.912z"/>
<path style="fill:#DADBDC;" d="M261.638,253.639c0.004,0.193,0.008,0.385,0.012,0.578c-0.164,0-0.33,0-0.543,0
	c0-0.207,0-0.395,0-0.583C261.284,253.636,261.46,253.638,261.638,253.639z"/>
<path style="fill:#898B8D;" d="M249.65,258.772c0,0.184,0,0.367,0,0.589c-0.19,0-0.363,0-0.536,0c0-0.185,0-0.369,0-0.589
	C249.304,258.772,249.477,258.772,249.65,258.772z"/>
<path style="fill:#97999C;" d="M265.657,254.811c0.197,0.001,0.395,0.003,0.594,0.004c0,0.165,0,0.331,0,0.513
	c-0.199,0-0.379,0-0.594,0C265.657,255.155,265.657,254.983,265.657,254.811z"/>
<path style="fill:#DDDEDF;" d="M258.222,258.776c0,0.187,0,0.371,0,0.591c-0.189,0-0.363,0-0.537,0c0-0.183,0-0.365,0-0.591
	C257.878,258.776,258.05,258.776,258.222,258.776z"/>
<path style="fill:#898B8D;" d="M263.94,253.101c0.184,0,0.369,0,0.592,0c0,0.186,0,0.359,0,0.533c-0.184,0-0.367,0-0.592,0
	C263.94,253.446,263.94,253.273,263.94,253.101z"/>
<path style="fill:#D6D8D9;" d="M244.515,265.082c0.194,0.004,0.388,0.008,0.582,0.012c0.002,0.176,0.005,0.353,0.008,0.527
	c-0.184,0-0.367,0-0.59,0C244.515,265.426,244.515,265.254,244.515,265.082z"/>
<path style="fill:#7F8083;" d="M260.517,265.09c0.184,0,0.367,0,0.59,0c0,0.19,0,0.363,0,0.536c-0.186,0-0.369,0-0.59,0
	C260.517,265.437,260.517,265.264,260.517,265.09z"/>
<path style="fill:#B1B3B6;" d="M257.679,256.523c0-0.185,0-0.37,0-0.589c0.189,0,0.363,0,0.537,0c0,0.184,0,0.367,0,0.589
	C258.024,256.523,257.851,256.523,257.679,256.523z"/>
<path style="fill:#7F8083;" d="M261.106,265.626c0.164,0,0.332,0,0.535,0c0,0.209,0,0.397,0,0.589c-0.166,0-0.334,0-0.535,0
	C261.106,266.007,261.106,265.817,261.106,265.626z"/>
<path style="fill:#E1E2E3;" d="M266.796,265.636c-0.01,0.181-0.02,0.361-0.029,0.561c-0.182,0.011-0.346,0.021-0.508,0.03
	l-0.018-0.02c-0.133-0.194-0.133-0.39,0.01-0.58l-0.002,0.002c0.174-0.137,0.35-0.137,0.527-0.01L266.796,265.636z"/>
<path style="fill:#D5D7D8;" d="M245.693,266.209c0.167,0,0.335,0,0.536,0c0,0.206,0,0.398,0,0.59c-0.165,0-0.33,0-0.536,0
	C245.693,266.588,245.693,266.399,245.693,266.209z"/>
<path style="fill:#B1B3B6;" d="M259.392,254.809c0-0.185,0-0.37,0-0.589c0.189,0,0.363,0,0.537,0c0,0.184,0,0.367,0,0.589
	C259.735,254.809,259.563,254.809,259.392,254.809z"/>
<path style="fill:#B1B3B6;" d="M257.091,257.058c0-0.167,0-0.334,0-0.536c0.207,0,0.398,0,0.59,0c0,0.167,0,0.332,0,0.536
	C257.47,257.058,257.28,257.058,257.091,257.058z"/>
<path style="fill:#949699;" d="M263.354,259.95c-0.166,0-0.332,0-0.533,0c0-0.208,0-0.399,0-0.589c0.164,0,0.332,0,0.533,0
	C263.354,259.569,263.354,259.759,263.354,259.95z"/>
<path style="fill:#898B8D;" d="M248.526,259.949c0,0.166,0,0.333,0,0.535c-0.208,0-0.399,0-0.589,0c0-0.166,0-0.333,0-0.535
	C248.144,259.949,248.335,259.949,248.526,259.949z"/>
<path style="fill:#8D8F92;" d="M260.517,253.631c0-0.167,0-0.334,0-0.517c0.197,0,0.373,0,0.596,0c0,0.168,0,0.341,0,0.514
	C260.913,253.628,260.714,253.63,260.517,253.631z"/>
<path style="fill:#7F8083;" d="M262.229,266.803c0.186,0,0.367,0,0.592,0c0,0.191,0,0.362,0,0.535c-0.186,0-0.371,0-0.592,0
	C262.229,267.15,262.229,266.978,262.229,266.803z"/>
<path style="fill:#E1E2E3;" d="M265.671,266.815c-0.01,0.163-0.02,0.325-0.031,0.507c-0.199,0.011-0.379,0.021-0.559,0.03
	l-0.018-0.02c-0.127-0.178-0.127-0.354,0.01-0.527l-0.002,0.001c0.191-0.142,0.385-0.142,0.58-0.01L265.671,266.815z"/>
<path style="fill:#D6D8D9;" d="M249.647,246.785c-0.167,0-0.335,0-0.536,0c0-0.188,0-0.363,0-0.537c0.165,0,0.33,0,0.536,0
	C249.647,246.442,249.647,246.614,249.647,246.785z"/>
<path style="fill:#E0E1E2;" d="M251.358,248.503c-0.175-0.004-0.351-0.009-0.526-0.013c-0.002-0.176-0.005-0.352-0.008-0.528
	c0.166,0,0.331,0,0.534,0C251.358,248.158,251.358,248.331,251.358,248.503z"/>
<path style="fill:#9C9FA1;" d="M254.256,262.199c0-0.167,0-0.333,0-0.543c0.184,0,0.355,0,0.527,0c0,0.167,0,0.334,0,0.543
	C254.602,262.199,254.428,262.199,254.256,262.199z"/>
<path style="fill:#898B8D;" d="M250.829,265.624c0-0.165,0-0.331,0-0.534c0.19,0,0.363,0,0.535,0c0,0.167,0,0.333,0,0.534
	C251.175,265.624,251.002,265.624,250.829,265.624z"/>
<path style="fill:#A7A9AB;" d="M252.542,254.809c0.167,0,0.333,0,0.535,0c0,0.189,0,0.363,0,0.536c-0.166,0-0.332,0-0.535,0
	C252.542,255.155,252.542,254.982,252.542,254.809z"/>
<path style="fill:#898B8D;" d="M249.115,267.338c0-0.167,0-0.333,0-0.535c0.191,0,0.363,0,0.536,0c0,0.166,0,0.333,0,0.535
	C249.462,267.338,249.289,267.338,249.115,267.338z"/>
<path style="fill:#898B8D;" d="M252.542,263.912c0-0.167,0-0.332,0-0.535c0.19,0,0.363,0,0.536,0c0,0.167,0,0.332,0,0.535
	C252.888,263.912,252.715,263.912,252.542,263.912z"/>
<path style="fill:#898B8D;" d="M262.817,253.63c0-0.166,0-0.331,0-0.528c0.197,0,0.369,0,0.541,0c0,0.167,0,0.333,0,0.528
	C263.165,253.63,262.991,253.63,262.817,253.63z"/>
<path style="fill:#CCCED0;" d="M247.932,251.388c0.004,0.176,0.009,0.351,0.013,0.525c-0.166,0-0.331,0-0.541,0
	c0-0.188,0-0.36,0-0.531C247.58,251.384,247.756,251.386,247.932,251.388z"/>
<path style="fill:#A7A9AB;" d="M250.829,253.096c0.167,0,0.334,0,0.535,0c0,0.189,0,0.362,0,0.535c-0.166,0-0.331,0-0.535,0
	C250.829,253.441,250.829,253.269,250.829,253.096z"/>
<path style="fill:#C4C6C8;" d="M245.691,249.669c0.167,0,0.334,0,0.536,0c0,0.188,0,0.362,0,0.536c-0.165,0-0.33,0-0.536,0
	C245.691,250.011,245.691,249.84,245.691,249.669z"/>
<path style="fill:#C7C8CA;" d="M254.788,253.636c-0.168,0-0.335,0-0.536,0c0-0.188,0-0.363,0-0.537c0.165,0,0.331,0,0.536,0
	C254.788,253.293,254.788,253.464,254.788,253.636z"/>
<path style="fill:#C4C6C8;" d="M253.074,251.923c-0.167,0-0.334,0-0.535,0c0-0.188,0-0.363,0-0.536c0.165,0,0.33,0,0.535,0
	C253.074,251.579,253.074,251.751,253.074,251.923z"/>
<path style="fill:#484849;" d="M266.251,265.627c-0.004,0.193-0.006,0.387-0.01,0.58c-0.195,0.005-0.389,0.008-0.582,0.01
	c0-0.182,0-0.364,0-0.59C265.872,265.627,266.062,265.627,266.251,265.627z"/>
<path style="fill:#48484A;" d="M265.651,266.796c-0.193,0.005-0.387,0.007-0.58,0.01c0-0.182,0-0.364,0-0.59c0.213,0,0.4,0,0.59,0
	C265.659,266.409,265.655,266.603,265.651,266.796z"/>
<path style="fill:#48484A;" d="M265.073,266.805c-0.004,0.176-0.006,0.353-0.01,0.527c-0.176,0.003-0.354,0.004-0.529,0.007
	c0-0.164,0-0.328,0-0.534C264.731,266.805,264.901,266.805,265.073,266.805z"/>
<path style="fill:#48484A;" d="M266.776,265.619c-0.176,0.002-0.352,0.007-0.527,0.01c0-0.165,0-0.329,0-0.539
	c0.193,0,0.363,0,0.533,0C266.78,265.267,266.778,265.443,266.776,265.619z"/>
</svg>
